<?xml version="1.0" encoding="UTF-8" standalone="no"?>
<svg
   width="535.15"
   height="535.15"
   viewBox="0 0 501.7 501.7"
   version="1.1"
   id="svg7"
   sodipodi:docname="gruvbox-dark-rainbow-square.svg"
   inkscape:version="1.4.2 (ebf0e940d0, 2025-05-08)"
   xmlns:inkscape="http://www.inkscape.org/namespaces/inkscape"
   xmlns:sodipodi="http://sodipodi.sourceforge.net/DTD/sodipodi-0.dtd"
   xmlns="http://www.w3.org/2000/svg"
   xmlns:svg="http://www.w3.org/2000/svg">
  <defs
     id="defs7" />
  <sodipodi:namedview
     id="namedview7"
     pagecolor="#505050"
     bordercolor="#ffffff"
     borderopacity="1"
     inkscape:showpageshadow="0"
     inkscape:pageopacity="0"
     inkscape:pagecheckerboard="1"
     inkscape:deskcolor="#505050"
     inkscape:zoom="0.44099783"
     inkscape:cx="267.57501"
     inkscape:cy="266.44122"
     inkscape:window-width="1008"
     inkscape:window-height="978"
     inkscape:window-x="0"
     inkscape:window-y="0"
     inkscape:window-maximized="0"
     inkscape:current-layer="svg7" />
  <g
     fill-rule="evenodd"
     id="g7">
    <path
       d="m197.245 168.956-122.22 211.66-28.535-48.37 32.939-56.688-65.416-.172-13.941-24.17 14.236-24.72 93.112.294 33.464-57.69z"
       fill="#d3869b"
       id="path2" />
    <path
       d="m206.615 338.156 244.42.013-27.622 48.897-65.562-.182 32.559 56.737-13.961 24.159-28.527.031-46.302-80.784-66.693-.135z"
       fill="#b8bb26"
       id="path3" />
    <path
       d="m348.875 245.416-122.2-211.68 56.157-.527 32.623 56.87 32.857-56.566 27.902.011 14.29 24.69-46.81 80.49 33.23 57.826z"
       fill="#fe8019"
       id="path4" />
    <path
       transform="translate(-156.415 966.536)"
       d="m451.3-803.62-244.41-.012 27.622-48.897 65.562.182-32.559-56.737 13.96-24.159 28.528-.031 46.301 80.784 66.693.135z"
       fill="#cc241d"
       style="isolation:auto;mix-blend-mode:normal"
       id="path5" />
    <path
       transform="translate(-156.415 966.536)"
       d="m460.9-633.97 122.22-211.66 28.535 48.37-32.939 56.687 65.415.172 13.942 24.17-14.236 24.72-93.112-.293-33.464 57.69z"
       fill="#d79921"
       style="isolation:auto;mix-blend-mode:normal"
       id="path6" />
    <path
       transform="translate(-156.415 966.536)"
       d="m309.4-710.25 122.2 211.68-56.157.527-32.623-56.87-32.857 56.566-27.902-.011-14.29-24.69 46.81-80.49-33.23-57.826z"
       fill="#458588"
       style="isolation:auto;mix-blend-mode:normal"
       id="path7" />
  </g>
</svg>
